<?xml version="1.0" standalone="no"?><!DOCTYPE svg PUBLIC "-//W3C//DTD SVG 1.1//EN" "http://www.w3.org/Graphics/SVG/1.1/DTD/svg11.dtd"><svg t="1510058766015" class="icon" style="" viewBox="0 0 1024 1024" version="1.1" xmlns="http://www.w3.org/2000/svg" p-id="5983" xmlns:xlink="http://www.w3.org/1999/xlink" width="300" height="300"><defs><style type="text/css"></style></defs><path d="M768 384h131.2c19.2 0 32-12.8 32-32s-12.8-32-32-32h-137.6c-28.8-128-144-224-281.6-224-160 0-288 128-288 288 0 108.8 60.8 201.6 147.2 249.6-121.6 48-214.4 153.6-240 288-3.2 19.2 9.6 35.2 25.6 38.4h6.4c16 0 28.8-9.6 32-25.6 28.8-150.4 160-259.2 310.4-262.4h6.4c160 0 288-128 288-288zM256 384c0-124.8 99.2-224 224-224 99.2 0 185.6 67.2 214.4 160H355.2c-19.2 0-32 12.8-32 32s12.8 32 32 32H704c0 121.6-96 220.8-217.6 224h-12.8C352 604.8 256 505.6 256 384zM896 704h-256c-19.2 0-32 12.8-32 32v192c0 19.2 12.8 32 32 32h256c19.2 0 32-12.8 32-32v-192c0-16-12.8-32-32-32z m-32 192h-192v-128h192v128z" p-id="5984" fill="#d81e06"></path><path d="M736 864h32c19.2 0 32-12.8 32-32s-12.8-32-32-32h-32c-19.2 0-32 12.8-32 32s16 32 32 32z" p-id="5985" fill="#d81e06"></path></svg>